<?xml version="1.0" encoding="UTF-8" standalone="no"?>
<!DOCTYPE svg PUBLIC "-//W3C//DTD SVG 1.1//EN" "http://www.w3.org/Graphics/SVG/1.1/DTD/svg11.dtd">
<svg width="100%" height="100%" viewBox="0 0 1534 412" version="1.1" xmlns="http://www.w3.org/2000/svg" xmlns:xlink="http://www.w3.org/1999/xlink" xml:space="preserve" xmlns:serif="http://www.serif.com/" style="fill-rule:evenodd;clip-rule:evenodd;stroke-linejoin:round;stroke-miterlimit:2;">
    <g transform="matrix(4.16667,0,0,4.16667,-128.529,-185.663)">
        <path d="M57.583,117.785C57.583,112.025 52.735,109.337 46.783,109.337L30.847,109.337L30.847,142.841L39.775,142.841L39.775,129.594L41.647,129.594C44.959,129.594 46.111,131.034 47.935,136.793L49.855,142.841L59.167,142.841L55.903,133.721C54.223,129.641 54.031,127.097 51.151,126.329L51.151,126.233C55.471,125.225 57.583,122.249 57.583,117.785ZM48.655,119.369C48.655,123.161 45.007,123.257 42.127,123.257L39.775,123.257L39.775,115.673L42.127,115.673C45.535,115.673 48.655,116.249 48.655,119.369Z" style="fill:rgb(67,82,90);fill-rule:nonzero;"/>
        <rect x="63.535" y="109.337" width="8.928" height="33.504" style="fill:rgb(67,82,90);fill-rule:nonzero;"/>
        <path d="M111.151,125.945C111.151,112.985 102.991,109.337 91.327,109.337L79.135,109.337L79.135,142.841L91.327,142.841C102.751,142.841 111.151,138.473 111.151,125.945ZM101.935,126.089C101.935,132.761 98.191,136.217 91.519,136.217L88.063,136.217L88.063,115.961L91.519,115.961C98.047,115.961 101.935,119.417 101.935,126.089Z" style="fill:rgb(67,82,90);fill-rule:nonzero;"/>
        <rect x="116.911" y="109.337" width="8.928" height="33.504" style="fill:rgb(67,82,90);fill-rule:nonzero;"/>
        <path d="M132.655,142.841L140.863,142.841L140.575,119.945L140.671,119.945L152.383,142.841L163.471,142.841L163.471,109.337L155.311,109.337L155.455,132.089L155.359,132.089L144.031,109.337L132.655,109.337L132.655,142.841Z" style="fill:rgb(67,82,90);fill-rule:nonzero;"/>
        <path d="M200.815,123.257L186.943,123.257L186.943,129.594L192.175,129.594L192.175,136.217C191.359,136.601 190.207,136.793 189.007,136.793C182.479,136.793 177.823,132.809 177.823,126.233C177.823,118.409 183.775,115.385 191.023,115.385C193.135,115.385 196.399,115.913 199.183,117.545L199.903,110.249C196.639,109.001 191.983,108.761 189.775,108.761C177.487,108.761 168.607,113.609 168.607,126.233C168.607,138.905 178.927,143.417 187.855,143.417C190.927,143.417 195.151,143.321 200.815,141.881L200.815,123.257Z" style="fill:rgb(67,82,90);fill-rule:nonzero;"/>
        <path d="M278.196,117.833C278.196,112.073 273.54,109.337 267.3,109.337L251.892,109.337L251.892,142.841L266.004,142.841C272.004,142.841 279.06,141.161 279.06,133.145C279.06,129.066 276.756,126.665 272.292,125.753L272.292,125.657C276.036,124.409 278.196,122.057 278.196,117.833ZM269.268,119.033C269.268,121.865 266.244,122.585 263.316,122.585L260.82,122.585L260.82,115.673L263.412,115.673C266.388,115.673 269.268,115.961 269.268,119.033ZM270.132,132.617C270.132,136.025 266.724,136.505 263.46,136.505L260.82,136.505L260.82,128.633L263.556,128.633C266.628,128.633 270.132,128.969 270.132,132.617Z" style="fill:rgb(67,82,90);fill-rule:nonzero;"/>
        <path d="M293.94,142.841L302.868,142.841L302.868,130.217L315.156,109.337L304.884,109.337L298.404,122.777L291.828,109.337L281.556,109.337L293.94,130.217L293.94,142.841Z" style="fill:rgb(67,82,90);fill-rule:nonzero;"/>
        <path d="M324.563,142.841L333.491,142.841L333.491,115.961L341.747,115.961L341.747,109.337L316.307,109.337L316.307,115.961L324.563,115.961L324.563,142.841Z" style="fill:rgb(67,82,90);fill-rule:nonzero;"/>
        <path d="M345.251,142.841L369.395,142.841L369.395,136.505L354.179,136.505L354.179,128.921L368.051,128.921L368.051,122.585L354.179,122.585L354.179,115.673L368.867,115.673L368.867,109.337L345.251,109.337L345.251,142.841Z" style="fill:rgb(67,82,90);fill-rule:nonzero;"/>
        <path d="M374.147,141.977C377.123,142.937 381.011,143.417 384.131,143.417C391.571,143.417 398.867,141.065 398.867,132.377C398.867,120.281 383.027,123.929 383.027,118.505C383.027,115.577 386.771,115.385 389.027,115.385C391.571,115.385 394.163,115.865 396.467,116.921L397.043,110.009C394.787,109.241 391.619,108.761 388.403,108.761C381.683,108.761 373.811,110.969 373.811,119.033C373.811,131.225 389.651,127.289 389.651,133.529C389.651,136.217 386.963,136.793 384.131,136.793C380.435,136.793 377.219,135.833 374.915,134.585L374.147,141.977Z" style="fill:rgb(67,82,90);fill-rule:nonzero;"/>
        <path d="M240.637,111.638L231.918,103.874L240.7,103.237L240.637,111.638Z" style="fill:rgb(159,143,110);fill-rule:nonzero;"/>
        <path d="M246.81,99.228L240.7,103.237L238.345,96.492L246.81,99.228Z" style="fill:rgb(159,143,110);fill-rule:nonzero;"/>
        <path d="M231.918,103.874L238.345,96.492L240.7,103.237L231.918,103.874Z" style="fill:rgb(159,143,110);fill-rule:nonzero;"/>
        <path d="M231.026,96.873L231.918,103.874L238.345,96.492L231.026,96.873Z" style="fill:rgb(159,143,110);fill-rule:nonzero;"/>
        <path d="M253.598,96.789L249.61,94.328L246.81,99.228L253.598,96.789Z" style="fill:rgb(159,143,110);fill-rule:nonzero;"/>
        <path d="M237.9,93.564L238.345,96.492L231.026,96.873L237.9,93.564Z" style="fill:rgb(159,143,110);fill-rule:nonzero;"/>
        <path d="M244.391,93.946L246.81,99.228L238.345,96.492L244.391,93.946Z" style="fill:rgb(159,143,110);fill-rule:nonzero;"/>
        <path d="M237.9,93.564L238.345,96.492L244.391,93.946L237.9,93.564Z" style="fill:rgb(159,143,110);fill-rule:nonzero;"/>
        <path d="M249.61,94.328L244.391,93.946L246.81,99.228L249.61,94.328Z" style="fill:rgb(159,143,110);fill-rule:nonzero;"/>
        <path d="M258.732,93.182L253.827,93.798L249.61,94.328L253.598,96.789L258.732,93.182Z" style="fill:rgb(159,143,110);fill-rule:nonzero;"/>
        <path d="M261.023,88.218L259.622,83.169L258.732,93.182L261.023,88.218Z" style="fill:rgb(159,143,110);fill-rule:nonzero;"/>
        <path d="M264.036,90.849L264.205,86.733L261.023,88.218L264.036,90.849Z" style="fill:rgb(159,143,110);fill-rule:nonzero;"/>
        <path d="M259.622,83.169L264.205,86.733L261.023,88.218L259.622,83.169Z" style="fill:rgb(159,143,110);fill-rule:nonzero;"/>
        <path d="M271.376,89.809L264.036,90.849L264.205,86.733L271.376,89.809Z" style="fill:rgb(159,143,110);fill-rule:nonzero;"/>
        <path d="M276.977,88.154L271.376,89.809L264.205,86.733L276.977,88.154Z" style="fill:rgb(159,143,110);fill-rule:nonzero;"/>
        <path d="M280.922,89.364L281.262,84.951L276.977,88.154L280.922,89.364Z" style="fill:rgb(159,143,110);fill-rule:nonzero;"/>
        <path d="M277.677,96.937L280.922,89.364L279.395,101.583L277.677,96.937Z" style="fill:rgb(159,143,110);fill-rule:nonzero;"/>
        <path d="M281.262,84.951L264.205,86.733L276.977,88.154L281.262,84.951Z" style="fill:rgb(159,143,110);fill-rule:nonzero;"/>
        <path d="M241.04,143.417L233.742,143.332L233.912,139.514L241.04,143.417Z" style="fill:rgb(159,143,110);fill-rule:nonzero;"/>
        <path d="M240.106,138.241L233.912,139.514L241.04,143.417L240.106,138.241Z" style="fill:rgb(159,143,110);fill-rule:nonzero;"/>
        <path d="M228.396,129.161L240.106,138.241L233.912,139.514L228.396,129.161Z" style="fill:rgb(159,143,110);fill-rule:nonzero;"/>
        <path d="M237.263,117.748L229.923,119.827L228.396,129.161L237.263,117.748Z" style="fill:rgb(159,143,110);fill-rule:nonzero;"/>
        <path d="M223.644,113.378L237.263,117.748L229.923,119.827L223.644,113.378Z" style="fill:rgb(159,143,110);fill-rule:nonzero;"/>
        <path d="M274.24,67.089L270.421,66.643L272.394,62.443L274.24,67.089Z" style="fill:rgb(159,143,110);fill-rule:nonzero;"/>
        <path d="M268.958,59.451L269.865,63.91L270.421,66.643L272.394,62.443L268.958,59.451Z" style="fill:rgb(159,143,110);fill-rule:nonzero;"/>
        <path d="M264.566,62.379L269.865,63.91L268.958,59.451L264.566,62.379Z" style="fill:rgb(159,143,110);fill-rule:nonzero;"/>
        <path d="M261.256,55.951L261.193,60.597L264.566,62.379L261.256,55.951Z" style="fill:rgb(159,143,110);fill-rule:nonzero;"/>
        <path d="M267.812,55.633L265.457,54.806L264.884,52.896L267.812,55.633Z" style="fill:rgb(159,143,110);fill-rule:nonzero;"/>
        <path d="M267.303,53.469L267.812,55.633L264.884,52.896L267.303,53.469Z" style="fill:rgb(159,143,110);fill-rule:nonzero;"/>
        <path d="M275.195,64.797L276.085,63.015L273.858,61.679L275.195,64.797Z" style="fill:rgb(159,143,110);fill-rule:nonzero;"/>
        <path d="M261.384,51.114L257.969,49.651L258.519,45.28L260.025,48.346L261.384,51.114Z" style="fill:rgb(159,143,110);fill-rule:nonzero;"/>
        <path d="M275.322,103.81L275.449,97.955L277.677,96.937L275.322,103.81Z" style="fill:rgb(159,143,110);fill-rule:nonzero;"/>
        <path d="M279.395,101.583L278.65,99.569L277.677,96.937L275.322,103.81L279.395,101.583Z" style="fill:rgb(159,143,110);fill-rule:nonzero;"/>
        <path d="M206.651,107.374L210.279,123.157L205.951,114.311L206.651,107.374Z" style="fill:rgb(159,143,110);fill-rule:nonzero;"/>
        <path d="M215.37,131.941L210.279,123.157L215.816,124.876L215.37,131.941Z" style="fill:rgb(159,143,110);fill-rule:nonzero;"/>
        <path d="M213.27,138.113L215.37,131.941L215.88,135.059L213.27,138.113Z" style="fill:rgb(159,143,110);fill-rule:nonzero;"/>
        <path d="M218.871,127.994L221.48,132.258L216.198,139.004L218.871,127.994Z" style="fill:rgb(159,143,110);fill-rule:nonzero;"/>
        <path d="M207.924,138.623L213.27,138.113L216.198,139.004L207.924,138.623Z" style="fill:rgb(159,143,110);fill-rule:nonzero;"/>
        <path d="M211.806,119.148L210.915,109.665L220.207,123.157L211.806,119.148Z" style="fill:rgb(159,143,110);fill-rule:nonzero;"/>
        <path d="M257.311,47.423L250.565,53.214L248.931,50.499L257.311,47.423Z" style="fill:rgb(159,143,110);fill-rule:nonzero;"/>
        <path d="M249.292,56.588L248.401,64.352L244.519,66.622L249.292,56.588Z" style="fill:rgb(159,143,110);fill-rule:nonzero;"/>
        <path d="M248.21,66.261L245.983,73.962L242.313,73.665L248.21,66.261Z" style="fill:rgb(159,143,110);fill-rule:nonzero;"/>
        <path d="M248.146,50.987L238.6,56.333L244.604,58.476L248.146,50.987Z" style="fill:rgb(159,143,110);fill-rule:nonzero;"/>
        <path d="M246.237,58.2L242.822,68.659L234.463,68.637L246.237,58.2Z" style="fill:rgb(159,143,110);fill-rule:nonzero;"/>
        <path d="M244.731,67.683L237.985,76.041L230.433,76.975L244.731,67.683Z" style="fill:rgb(159,143,110);fill-rule:nonzero;"/>
        <path d="M259.92,44.559L261.384,51.114L260.025,48.346L259.92,44.559Z" style="fill:rgb(159,143,110);fill-rule:nonzero;"/>
        <path d="M223.644,113.378L219.062,102.474L219.953,109.856L223.644,113.378Z" style="fill:rgb(159,143,110);fill-rule:nonzero;"/>
        <path d="M253.827,93.798L259.622,83.169L258.732,93.182L253.827,93.798Z" style="fill:rgb(159,143,110);fill-rule:nonzero;"/>
        <path d="M268.385,81.79L263.93,81.599L266.296,78.319L268.703,74.98L268.385,81.79Z" style="fill:rgb(159,143,110);fill-rule:nonzero;"/>
        <path d="M262.402,68.489L266.296,78.319L268.703,74.98L262.402,68.489Z" style="fill:rgb(159,143,110);fill-rule:nonzero;"/>
        <path d="M263.357,47.996L270.994,53.915L268.576,47.932L263.357,47.996Z" style="fill:rgb(159,143,110);fill-rule:nonzero;"/>
        <path d="M227.462,89.618L218.807,98.083L223.644,96.492L227.462,89.618Z" style="fill:rgb(159,143,110);fill-rule:nonzero;"/>
        <path d="M218.807,102.092L210.915,105.656L213.122,107.438L218.807,102.092Z" style="fill:rgb(159,143,110);fill-rule:nonzero;"/>
        <path d="M212.952,101.158L206.651,107.374L210.915,105.656L212.952,101.158Z" style="fill:rgb(159,143,110);fill-rule:nonzero;"/>
        <path d="M255.805,47.274L251.053,44.814L244.179,48.972L255.805,47.274Z" style="fill:rgb(159,143,110);fill-rule:nonzero;"/>
    </g>
</svg>
