<?xml version="1.0" encoding="UTF-8"?>
<svg width="709px" height="348px" viewBox="0 0 709 348" xmlns="http://www.w3.org/2000/svg" xmlns:xlink="http://www.w3.org/1999/xlink" version="1.1">
 <!-- Generated by Pixelmator Pro 1.5.1 -->
 <g id="group">
  <path id="Pfad" d="M346.271 130.987 L291.945 127.275 250.841 109.47 295.667 -0 345.704 130.3 345.988 130.8 Z" fill="#313537" fill-opacity="1" stroke="none"/>
  <path id="Pfad-1" d="M427.125 147.738 L388.721 99.246 419.15 41.796 456.446 132.592 Z" fill="#414546" fill-opacity="1" stroke="none"/>
  <path id="Pfad-2" d="M275.204 176.083 L250.841 109.47 291.945 127.275 310.37 147.917 Z" fill="#14191c" fill-opacity="1" stroke="none"/>
  <path id="Pfad-3" d="M424.113 176.083 L364.408 176.083 427.125 147.737 456.446 132.592 Z" fill="#222629" fill-opacity="1" stroke="none"/>
  <path id="Pfad-4" d="M364.408 176.083 L275.204 176.083 310.37 147.917 Z" fill="#070a0f" fill-opacity="1" stroke="none"/>
  <path id="Pfad-5" d="M364.408 176.083 L310.37 147.917 291.946 127.275 346.271 130.987 346.354 131.037 346.433 131.025 Z" fill="#222629" fill-opacity="1" stroke="none"/>
  <path id="Pfad-6" d="M364.408 176.083 L346.433 131.025 347.133 130.908 387.704 100.7 427.125 147.737 Z" fill="#313537" fill-opacity="1" stroke="none"/>
  <path id="Pfad-7" d="M347.487 127.541 L295.667 -0 419.15 41.796 387.175 98.754 Z M388.721 99.245 L388.679 99.196 419.15 41.792 419.15 41.796 Z" fill="#888b8c" fill-opacity="1" stroke="none"/>
  <path id="Pfad-8" d="M427.125 147.738 L387.704 100.7 347.133 130.908 346.433 131.025 346.354 131.037 346.271 130.987 345.988 130.8 345.704 130.3 295.667 0 347.488 127.542 387.175 98.754 419.15 41.792 388.679 99.196 388.721 99.246 Z" fill="#f8eee3" fill-opacity="1" stroke="none"/>
  <path id="Pfad-9" d="M92.008 306.492 C92.008 287.892 77.558 277.262 62.112 269.621 L44.175 260.654 C37.366 257.167 32.883 254.175 32.883 246.371 32.883 238.563 39.196 234.579 47.829 234.579 55.471 234.579 65.599 237.567 73.241 244.212 L88.187 223.117 C75.733 213.983 61.283 211.158 47.829 211.158 22.754 211.158 3.816 225.775 3.816 247.533 3.816 263.808 14.116 274.938 30.224 283.408 L53.145 295.362 C57.296 297.525 62.612 301.842 62.612 308.154 62.612 317.621 56.3 321.275 47.333 321.275 35.041 321.275 24.079 314.3 16.108 308.154 L0 330.075 C16.608 342.863 32.883 345.188 45.837 345.188 76.729 345.188 92.008 328.579 92.008 306.492 Z M191.542 343.858 L191.542 319.113 140.721 319.113 140.721 289.054 182.241 289.054 182.241 265.471 140.721 265.471 140.721 237.071 187.554 237.071 187.554 213.321 111.487 213.321 111.487 343.858 Z M326.3 347.017 L326.3 213.321 297.071 213.321 297.071 285.4 214.525 209.666 214.525 343.858 243.925 343.858 243.925 270.784 Z M469.017 343.858 L404.575 207.341 340.633 343.858 371.692 343.858 385.146 314.133 424.508 314.133 437.958 343.858 Z M415.871 293.037 L393.116 293.037 403.913 268.959 Z M612.313 237.071 L612.313 213.321 528.938 213.321 528.938 237.071 556.008 237.071 556.008 343.858 585.242 343.858 585.242 237.071 Z M708.842 343.858 L708.842 319.113 658.017 319.113 658.017 289.054 699.538 289.054 699.538 265.471 658.017 265.471 658.017 237.071 704.854 237.071 704.854 213.321 628.788 213.321 628.788 343.858 Z" fill="#d7dbdc" fill-opacity="1" stroke="none"/>
  <path id="Pfad-10" d="M518.504 219.263 C518.504 215.983 515.841 213.325 512.562 213.325 L483.333 213.325 C480.05 213.325 477.392 215.983 477.392 219.263 477.392 222.542 480.05 225.196 483.333 225.196 L483.333 330.579 C483.333 338.65 489.875 345.196 497.946 345.196 506.021 345.196 512.562 338.65 512.562 330.579 L512.562 329.246 512.562 225.196 C515.841 225.196 518.504 222.542 518.504 219.263 Z" fill="#d7dbdc" fill-opacity="1" stroke="none"/>
 </g>
</svg>
