<?xml version="1.0" encoding="UTF-8" standalone="no"?>
<!DOCTYPE svg PUBLIC "-//W3C//DTD SVG 1.1//EN" "http://www.w3.org/Graphics/SVG/1.1/DTD/svg11.dtd">
<svg width="100%" height="100%" viewBox="0 0 709 348" version="1.1" xmlns="http://www.w3.org/2000/svg" xmlns:xlink="http://www.w3.org/1999/xlink" xml:space="preserve" xmlns:serif="http://www.serif.com/" style="fill-rule:evenodd;clip-rule:evenodd;stroke-linejoin:round;stroke-miterlimit:2;">
    <g transform="matrix(4.16667,0,0,4.16667,-57.1834,-87.7709)">
        <path d="M96.829,52.502L83.791,51.611L73.926,47.338L84.684,21.065L96.693,52.337L96.761,52.457L96.829,52.502Z" style="fill:rgb(49,53,55);fill-rule:nonzero;"/>
        <path d="M116.234,56.522L107.017,44.884L114.32,31.096L123.271,52.887L116.234,56.522Z" style="fill:rgb(65,69,70);fill-rule:nonzero;"/>
        <path d="M79.773,63.325L73.926,47.338L83.791,51.611L88.213,56.565L79.773,63.325Z" style="fill:rgb(20,25,28);fill-rule:nonzero;"/>
        <path d="M115.511,63.325L101.182,63.325L116.234,56.522L123.271,52.887L115.511,63.325Z" style="fill:rgb(34,38,41);fill-rule:nonzero;"/>
        <path d="M101.182,63.325L79.773,63.325L88.213,56.565L101.182,63.325Z" style="fill:rgb(7,10,15);fill-rule:nonzero;"/>
        <path d="M101.182,63.325L88.213,56.565L83.791,51.611L96.829,52.502L96.849,52.514L96.868,52.511L101.182,63.325Z" style="fill:rgb(34,38,41);fill-rule:nonzero;"/>
        <path d="M101.182,63.325L96.868,52.511L97.036,52.483L106.773,45.233L116.234,56.522L101.182,63.325Z" style="fill:rgb(49,53,55);fill-rule:nonzero;"/>
        <path d="M97.121,51.675L84.684,21.065L114.32,31.096L106.646,44.766L97.121,51.675ZM107.017,44.884L107.007,44.872L114.32,31.095L114.32,31.096L107.017,44.884Z" style="fill:rgb(136,139,140);fill-rule:nonzero;"/>
        <path d="M116.234,56.522L106.773,45.233L97.036,52.483L96.868,52.511L96.849,52.514L96.829,52.502L96.761,52.457L96.693,52.337L84.684,21.065L97.121,51.675L106.646,44.766L114.32,31.095L107.007,44.872L107.017,44.884L116.234,56.522Z" style="fill:rgb(248,238,227);fill-rule:nonzero;"/>
        <path d="M35.806,94.623C35.806,90.159 32.338,87.608 28.631,85.774L24.326,83.622C22.692,82.785 21.616,82.067 21.616,80.194C21.616,78.32 23.131,77.364 25.203,77.364C27.037,77.364 29.468,78.081 31.302,79.676L34.889,74.613C31.9,72.421 28.432,71.743 25.203,71.743C19.185,71.743 14.64,75.251 14.64,80.473C14.64,84.379 17.112,87.05 20.978,89.083L26.479,91.952C27.475,92.471 28.751,93.507 28.751,95.022C28.751,97.294 27.236,98.171 25.084,98.171C22.134,98.171 19.503,96.497 17.59,95.022L13.724,100.283C17.71,103.352 21.616,103.91 24.725,103.91C32.139,103.91 35.806,99.924 35.806,94.623ZM59.694,103.591L59.694,97.652L47.497,97.652L47.497,90.438L57.462,90.438L57.462,84.778L47.497,84.778L47.497,77.962L58.737,77.962L58.737,72.262L40.481,72.262L40.481,103.591L59.694,103.591ZM92.036,104.349L92.036,72.262L85.021,72.262L85.021,89.561L65.21,71.385L65.21,103.591L72.266,103.591L72.266,86.053L92.036,104.349ZM126.288,103.591L110.822,70.827L95.476,103.591L102.93,103.591L106.159,96.457L115.606,96.457L118.834,103.591L126.288,103.591ZM113.533,91.394L108.072,91.394L110.663,85.615L113.533,91.394ZM160.679,77.962L160.679,72.262L140.669,72.262L140.669,77.962L147.166,77.962L147.166,103.591L154.182,103.591L154.182,77.962L160.679,77.962ZM183.846,103.591L183.846,97.652L171.648,97.652L171.648,90.438L181.613,90.438L181.613,84.778L171.648,84.778L171.648,77.962L182.889,77.962L182.889,72.262L164.633,72.262L164.633,103.591L183.846,103.591Z" style="fill:rgb(22,15,10);fill-rule:nonzero;"/>
        <path d="M138.165,73.688C138.165,72.901 137.526,72.263 136.739,72.263L129.724,72.263C128.936,72.263 128.298,72.901 128.298,73.688C128.298,74.475 128.936,75.112 129.724,75.112L129.724,100.404C129.724,102.341 131.294,103.912 133.231,103.912C135.169,103.912 136.739,102.341 136.739,100.404L136.739,100.084L136.739,75.112C137.526,75.112 138.165,74.475 138.165,73.688Z" style="fill:rgb(22,15,10);fill-rule:nonzero;"/>
    </g>
</svg>
