<?xml version="1.0" encoding="UTF-8" standalone="no"?>
<!DOCTYPE svg PUBLIC "-//W3C//DTD SVG 1.1//EN" "http://www.w3.org/Graphics/SVG/1.1/DTD/svg11.dtd">
<svg width="100%" height="100%" viewBox="0 0 380 284" version="1.1" xmlns="http://www.w3.org/2000/svg" xmlns:xlink="http://www.w3.org/1999/xlink" xml:space="preserve" xmlns:serif="http://www.serif.com/" style="fill-rule:evenodd;clip-rule:evenodd;stroke-linejoin:round;stroke-miterlimit:2;">
    <g transform="matrix(4.16667,0,0,4.16667,0,0)">
        <path d="M48.76,29.486C47.231,28.77 47.872,26.129 47.879,26.102L47.897,26.031L47.823,26.02C47.79,26.014 44.325,25.275 43.754,21.63C43.346,19.019 41.697,18.629 40.75,18.629C40.541,18.629 40.375,18.648 40.275,18.665C40.373,18.327 40.789,17.208 42.098,16.947C42.368,16.895 42.624,16.868 42.868,16.868C44.905,16.868 45.553,18.695 45.833,19.475C45.856,19.548 45.879,19.609 45.899,19.658C46.508,21.21 48.002,22.932 48.163,22.932L48.204,22.932L48.227,22.893C48.247,22.852 48.243,22.816 48.1,22.625C46.514,20.481 47.374,18.294 47.383,18.273C48.997,16.833 49.454,15.904 49.178,14.619C48.692,12.366 46.225,10.389 45.172,9.545L44.995,9.402C44.006,8.601 44.84,6.328 44.958,6.02C45.12,5.995 45.278,5.982 45.432,5.982C46.233,5.982 46.956,6.317 47.581,6.981C49.561,9.081 50.002,13.846 49.971,14.71C49.954,15.17 49.975,15.506 50.116,15.506C50.219,15.506 50.293,15.316 50.346,15.116C50.854,13.245 49.206,8.053 49.129,7.819C48.829,6.812 48.811,6.042 49.067,5.397C49.7,3.829 51.293,2.579 51.844,2.183C51.049,4.067 51.055,4.754 51.1,10.753L51.102,11.086C51.276,17.595 48.471,18.809 48.444,18.823L48.405,18.839L48.405,18.88C48.358,21.55 50.141,22.824 50.161,22.836L50.194,22.859L50.229,22.84C50.254,22.829 52.561,21.564 53.643,18.909L53.665,18.855L53.616,18.826C53.592,18.812 51.512,17.46 54.26,11.113L54.409,10.769C57.028,4.722 57.303,4.08 57.303,2.154C57.663,2.524 58.762,3.784 58.725,5.37C58.71,6.015 58.36,6.787 57.627,7.801C57.454,8.033 53.502,13.293 53.348,15.238C53.335,15.42 53.387,15.512 53.444,15.512C53.545,15.512 53.571,15.504 53.852,14.736C54.163,13.884 58.231,5.982 62.133,5.982C62.278,5.982 62.424,5.992 62.567,6.016C62.549,6.4 62.393,8.602 61.077,9.396L60.838,9.539C59.43,10.381 56.129,12.354 54.692,14.597C53.87,15.882 53.934,16.813 54.95,18.286C54.936,18.286 54.854,20.469 52.356,22.614C52.122,22.816 52.118,22.839 52.133,22.886L52.151,22.93L52.2,22.932C52.358,22.932 54.563,21.219 55.827,19.676C55.866,19.627 55.915,19.565 55.971,19.493C56.532,18.774 58.02,16.868 60.073,16.868C60.313,16.868 60.559,16.895 60.803,16.947C61.206,17.035 61.502,17.226 61.684,17.514C61.96,17.948 61.903,18.486 61.874,18.669C61.784,18.653 61.614,18.629 61.383,18.629C60.442,18.629 58.643,19.016 57.135,21.607C55.006,25.272 51.206,26.014 51.168,26.02L51.12,26.026L51.112,26.074C51.108,26.101 50.622,28.764 48.76,29.486Z" style="fill:rgb(35,31,32);fill-rule:nonzero;"/>
        <path d="M50.366,21.93C50.215,21.867 49.2,21.354 49.161,19.046C49.381,18.872 50.86,17.641 51.372,15.652C51.741,14.216 51.71,12.498 51.676,10.682C51.608,6.996 51.536,2.82 55.01,0.201C57.346,2.809 55.499,6.977 53.868,10.656C53.063,12.473 52.303,14.189 52.061,15.625C51.733,17.579 52.649,18.809 52.827,19.026C51.792,21.358 50.54,21.87 50.366,21.93Z" style="fill:rgb(35,31,32);fill-rule:nonzero;"/>
        <path d="M46.542,19.494C46.44,19.27 46.342,19.034 46.239,18.787C45.522,17.073 44.71,15.131 41.744,15.044L41.599,15.042C38.693,15.042 38.084,17.743 37.966,18.558C36.927,16.489 35.707,12.815 38.849,10.965C40.025,10.273 41.214,9.921 42.381,9.921C44.293,9.921 45.758,10.845 46.653,11.619C47.506,12.357 48.602,13.859 48.602,15.482C48.602,16.441 47.575,17.336 47.001,17.831C46.639,18.482 46.557,19.126 46.542,19.494Z" style="fill:rgb(35,31,32);fill-rule:nonzero;"/>
        <path d="M55.27,19.454C55.411,19.073 55.508,17.938 55.508,17.938C55.508,17.938 55.176,17.43 54.903,16.847C54.792,16.609 54.729,16.286 54.768,15.976C54.936,14.656 57.09,12.517 58.501,11.625C59.729,10.848 61.596,9.921 63.512,9.921C64.676,9.921 65.711,10.271 66.588,10.961C67.122,11.38 67.417,11.923 67.467,12.578C67.549,13.615 67.051,15.487 64.241,18.525C64.395,17.966 64.639,16.719 64.049,15.872C63.665,15.321 62.997,15.042 62.059,15.042L61.913,15.044C58.926,15.131 57.295,17.064 55.856,18.769C55.659,19.004 55.463,19.233 55.27,19.454Z" style="fill:rgb(35,31,32);fill-rule:nonzero;"/>
        <path d="M35.375,48.92C33.24,48.92 31.57,48.254 30.548,46.995C29.418,45.602 29.099,43.54 29.627,41.025C30.589,36.422 34.113,33.207 38.191,33.207C40.302,33.207 41.871,33.763 42.848,34.857C43.747,35.863 44.118,37.291 43.954,39.1C43.938,39.272 43.792,39.404 43.62,39.404L39.839,39.404C39.748,39.404 39.66,39.365 39.597,39.299C39.535,39.231 39.502,39.143 39.505,39.049C39.541,38.406 39.396,37.883 39.087,37.533C38.771,37.174 38.265,36.984 37.625,36.984C36.031,36.984 34.835,38.49 34.263,41.225C34.044,42.268 33.828,43.747 34.472,44.54C34.798,44.94 35.33,45.143 36.054,45.143C37.603,45.143 38.377,43.903 38.755,42.862C38.802,42.731 38.927,42.641 39.068,42.641L42.883,42.641C42.991,42.641 43.092,42.694 43.155,42.784C43.217,42.872 43.235,42.983 43.198,43.086C41.931,46.684 38.935,48.92 35.375,48.92Z" style="fill:rgb(35,31,32);fill-rule:nonzero;"/>
        <path d="M83.422,48.53C83.321,48.53 83.225,48.483 83.161,48.405C83.098,48.329 83.073,48.225 83.092,48.128L83.977,43.919C84.262,42.555 84.624,41.223 85.01,39.875L80.872,48.342C80.815,48.456 80.698,48.53 80.571,48.53L77.645,48.53C77.469,48.53 77.325,48.395 77.311,48.219L76.692,39.893C76.553,41.106 76.354,42.526 76.157,43.46L75.153,48.262C75.118,48.419 74.981,48.53 74.823,48.53L71.049,48.53C70.95,48.53 70.854,48.483 70.792,48.405C70.727,48.329 70.702,48.225 70.723,48.128L73.711,33.862C73.743,33.707 73.879,33.596 74.038,33.596L79.362,33.596C79.538,33.596 79.682,33.732 79.694,33.908L80.297,42.573L84.586,33.784C84.643,33.67 84.76,33.596 84.887,33.596L90.182,33.596C90.284,33.596 90.377,33.642 90.442,33.72C90.506,33.798 90.53,33.902 90.508,34L87.522,48.262C87.489,48.419 87.352,48.53 87.196,48.53L83.422,48.53Z" style="fill:rgb(35,31,32);fill-rule:nonzero;"/>
        <path d="M57.751,48.53C57.651,48.53 57.555,48.483 57.491,48.405C57.428,48.329 57.405,48.225 57.424,48.128L60.411,33.862C60.446,33.707 60.581,33.596 60.739,33.596L72.092,33.596C72.196,33.596 72.29,33.642 72.354,33.72C72.417,33.798 72.442,33.902 72.422,34L71.805,36.943C71.772,37.098 71.635,37.209 71.479,37.209L64.075,37.209L63.659,39.195L70.331,39.195C70.43,39.195 70.526,39.24 70.588,39.318C70.653,39.397 70.678,39.498 70.657,39.596L70.04,42.542C70.006,42.696 69.87,42.807 69.713,42.807L62.905,42.807L62.46,44.917L69.688,44.917C69.788,44.917 69.883,44.963 69.946,45.042C70.008,45.12 70.036,45.221 70.012,45.321L69.397,48.262C69.364,48.419 69.227,48.53 69.069,48.53L57.751,48.53Z" style="fill:rgb(35,31,32);fill-rule:nonzero;"/>
        <path d="M51.78,48.53C51.678,48.53 51.583,48.483 51.52,48.407C51.456,48.329 51.432,48.225 51.452,48.128L52.559,42.807L48.555,42.807L47.418,48.262C47.385,48.419 47.249,48.53 47.09,48.53L43.182,48.53C43.081,48.53 42.985,48.483 42.922,48.405C42.86,48.329 42.835,48.225 42.854,48.128L45.844,33.862C45.877,33.707 46.012,33.596 46.17,33.596L50.079,33.596C50.18,33.596 50.276,33.642 50.338,33.72C50.401,33.798 50.424,33.903 50.405,34.001L49.293,39.188L53.301,39.188L54.44,33.861C54.471,33.707 54.608,33.596 54.766,33.596L58.678,33.596C58.776,33.596 58.872,33.642 58.936,33.72C59.001,33.798 59.024,33.902 59.004,34L56.016,48.262C55.983,48.419 55.846,48.53 55.688,48.53L51.78,48.53Z" style="fill:rgb(35,31,32);fill-rule:nonzero;"/>
        <path d="M17.578,48.53C17.478,48.53 17.382,48.483 17.32,48.405C17.255,48.329 17.23,48.225 17.25,48.128L20.238,33.862C20.271,33.707 20.408,33.596 20.566,33.596L32.043,33.596C32.181,33.596 32.306,33.685 32.355,33.817C32.404,33.949 32.363,34.096 32.255,34.188C31.304,34.981 30.48,35.945 29.804,37.049C29.744,37.15 29.634,37.209 29.519,37.209L23.9,37.209L23.482,39.195L28.289,39.195C28.396,39.195 28.496,39.246 28.558,39.334C28.623,39.422 28.638,39.535 28.603,39.637C28.441,40.117 28.312,40.582 28.212,41.061C28.117,41.516 28.041,42.018 27.992,42.506C27.976,42.676 27.832,42.807 27.66,42.807L22.728,42.807L22.285,44.917L27.761,44.917C27.921,44.917 28.06,45.032 28.089,45.188C28.296,46.278 28.716,47.219 29.337,47.985C29.418,48.085 29.435,48.221 29.38,48.34C29.326,48.456 29.207,48.53 29.08,48.53L17.578,48.53Z" style="fill:rgb(35,31,32);fill-rule:nonzero;"/>
        <path d="M18.177,37.408C18.392,36.381 18.255,35.58 17.755,34.965C17.005,34.045 15.449,33.596 12.992,33.596L6.24,33.596C6.082,33.596 5.945,33.707 5.914,33.862L2.925,48.128C2.906,48.225 2.929,48.329 2.994,48.407C3.056,48.483 3.15,48.53 3.251,48.53L10.039,48.53C14.3,48.53 16.683,47.053 17.32,44.014C17.662,42.369 17.041,41.047 15.726,40.588C16.367,40.195 17.816,39.135 18.177,37.408ZM12.671,43.631C12.47,44.532 11.744,44.917 10.252,44.917L8.132,44.917L8.707,42.356L10.255,42.356C11.304,42.356 12.201,42.389 12.55,42.792C12.654,42.913 12.785,43.133 12.671,43.631ZM13.308,38.277C13.138,39.045 12.406,39.502 11.355,39.502L9.345,39.502L9.859,37.209L11.582,37.209C12.246,37.209 12.929,37.209 13.209,37.531C13.351,37.695 13.384,37.941 13.308,38.277Z" style="fill:rgb(35,31,32);fill-rule:nonzero;"/>
        <path d="M84.458,62.155L83.581,62.155L81.42,64.92L80.256,62.155L79.452,62.155L80.952,65.569L80.465,67.866L81.206,67.866L81.7,65.569L84.458,62.155ZM65.938,64.545C65.938,63.131 65.036,62.02 63.561,62.02C61.618,62.02 60.438,63.651 60.438,65.499C60.438,67.073 61.323,68 62.877,68C64.774,68 65.938,66.338 65.938,64.545ZM65.18,64.545C65.18,65.907 64.383,67.362 62.877,67.362C61.737,67.362 61.196,66.6 61.196,65.499C61.196,64.122 61.977,62.659 63.561,62.659C64.614,62.659 65.18,63.491 65.18,64.545ZM56.319,67.225L53.313,67.225L54.366,62.155L53.608,62.155L52.415,67.866L56.182,67.866L56.319,67.225ZM48.762,64.545C48.762,63.131 47.864,62.02 46.387,62.02C44.442,62.02 43.262,63.651 43.262,65.499C43.262,67.073 44.147,68 45.704,68C47.6,68 48.762,66.338 48.762,64.545ZM48.006,64.545C48.006,65.907 47.21,67.362 45.704,67.362C44.563,67.362 44.02,66.6 44.02,65.499C44.02,64.122 44.801,62.659 46.387,62.659C47.44,62.659 48.006,63.491 48.006,64.545ZM38.459,67.866L39.662,62.155L38.929,62.155L37.98,66.881L37.964,66.881L35.931,62.155L35.119,62.155L33.916,67.866L34.648,67.866L35.613,63.17L35.628,63.17L37.646,67.866L38.459,67.866ZM29.31,67.866L30.503,62.155L29.748,62.155L29.238,64.61L26.257,64.61L26.777,62.155L26.009,62.155L24.814,67.866L25.572,67.866L26.121,65.25L29.103,65.25L28.552,67.866L29.31,67.866ZM20.496,63.995L21.252,63.995C21.252,62.674 20.312,62.02 19.085,62.02C17.14,62.02 15.96,63.651 15.96,65.499C15.96,67.073 16.845,68 18.4,68C19.802,68 20.632,67.217 20.919,65.938L20.162,65.938C19.914,66.825 19.332,67.362 18.4,67.362C17.259,67.362 16.718,66.6 16.718,65.499C16.718,64.122 17.5,62.659 19.085,62.659C19.914,62.659 20.496,63.098 20.496,63.995ZM12.494,62.795L12.621,62.155L8.701,62.155L7.498,67.866L11.457,67.866L11.601,67.225L8.398,67.225L8.812,65.25L11.769,65.25L11.898,64.61L8.949,64.61L9.33,62.795L12.494,62.795ZM4.58,62.795L4.724,62.155L0.134,62.155L0,62.795L1.91,62.795L0.843,67.866L1.601,67.866L2.667,62.795L4.58,62.795Z" style="fill:rgb(35,31,32);fill-rule:nonzero;"/>
        <path d="M86.549,52.262L85.309,52.262L84.43,56.655L84.413,56.655L82.743,52.262L81.346,52.262L80.045,58.434L81.311,58.434L82.192,54.104L82.208,54.104L83.895,58.434L85.249,58.434L86.549,52.262ZM77.141,54.76C77.141,53.032 76.075,52.116 74.409,52.116C72.335,52.116 71.049,53.852 71.049,55.85C71.049,57.588 72.059,58.581 73.782,58.581C75.936,58.581 77.141,56.792 77.141,54.76ZM75.79,54.856C75.79,56.024 75.126,57.442 73.799,57.442C72.817,57.442 72.403,56.696 72.403,55.85C72.403,54.665 73.032,53.256 74.418,53.256C75.411,53.256 75.79,53.991 75.79,54.856ZM66.864,58.434L68.165,52.262L66.803,52.262L65.502,58.434L66.864,58.434ZM63.227,53.403L63.469,52.262L58.335,52.262L58.092,53.403L60.022,53.403L58.973,58.434L60.333,58.434L61.385,53.403L63.227,53.403ZM53.596,58.434L54.94,58.434L53.915,52.262L52.528,52.262L48.893,58.434L50.323,58.434L51.098,57.059L53.397,57.059L53.596,58.434ZM53.278,56.049L51.631,56.049L52.958,53.594L52.975,53.594L53.278,56.049ZM45.315,54.407L46.67,54.407C46.704,52.903 45.627,52.116 44.206,52.116C42.129,52.116 40.845,53.852 40.845,55.85C40.845,57.588 41.853,58.581 43.575,58.581C44.913,58.581 45.842,57.932 46.393,56.213L45.042,56.213C44.92,56.862 44.342,57.442 43.592,57.442C42.612,57.442 42.198,56.696 42.198,55.85C42.198,54.665 42.827,53.256 44.215,53.256C44.86,53.256 45.315,53.647 45.315,54.407ZM36.658,58.434L37.96,52.262L36.597,52.262L35.296,58.434L36.658,58.434ZM32.507,53.881C32.507,52.688 31.781,52.247 30.666,52.264L27.716,52.264L26.419,58.44L27.777,58.44L28.287,56.026L29.398,56.026L30.281,58.44L31.736,58.44C31.664,58.258 30.793,55.84 30.793,55.84C31.703,55.704 32.507,54.721 32.507,53.881ZM31.15,54.081C31.15,54.772 30.466,55.049 29.748,55.059L28.494,55.059L28.857,53.319L30.146,53.319C30.683,53.319 31.15,53.415 31.15,54.081ZM23.443,53.708C23.443,52.53 22.677,52.262 21.445,52.262L18.859,52.262L17.568,58.434L20.849,58.434C22.082,58.434 23.201,57.753 23.201,56.411C23.201,55.815 22.875,55.313 22.287,55.159L22.287,55.141C23.011,55.055 23.443,54.407 23.443,53.708ZM19.453,55.684L20.781,55.684C21.271,55.684 21.847,55.739 21.847,56.387C21.847,57.044 21.4,57.379 20.789,57.379L19.091,57.379L19.453,55.684ZM22.089,53.948C22.089,54.485 21.668,54.76 21.177,54.76L19.642,54.76L19.945,53.317L21.375,53.317C21.814,53.317 22.089,53.483 22.089,53.948ZM14.285,55.85L15.033,52.262L13.681,52.262L12.916,55.92C12.716,56.852 12.509,57.442 11.408,57.442C10.476,57.442 10.253,56.922 10.253,56.61C10.253,56.411 10.339,56.032 10.382,55.833L11.13,52.262L9.777,52.262L9.029,55.833C8.968,56.135 8.898,56.438 8.898,56.749C8.898,58.098 10.123,58.581 11.322,58.581C13.232,58.581 13.916,57.624 14.285,55.85ZM5.523,57.294L2.55,57.294L3.603,52.262L2.24,52.262L0.949,58.434L5.283,58.434L5.523,57.294Z" style="fill:rgb(35,31,32);fill-rule:nonzero;"/>
        <path d="M74.479,63.932L75.229,63.932C75.229,62.614 74.211,62.022 72.965,62.022C71.04,62.022 69.872,63.653 69.872,65.499C69.872,67.074 70.749,68 72.286,68C72.893,68 74.815,67.696 75.102,64.86L72.647,64.86L72.522,65.499L74.321,65.499C74.053,66.601 73.477,67.361 72.286,67.361C71.157,67.361 70.622,66.601 70.622,65.499C70.622,64.126 71.393,62.662 72.965,62.662C73.786,62.662 74.479,63.06 74.479,63.932Z" style="fill:rgb(35,31,32);fill-rule:nonzero;"/>
    </g>
</svg>
